# xmcd
#
# Track frame offsets:
#	150
#	19726
#	37413
#	53794
#	76328
#	92934
#	111044
#	123527
#	139392
#	162142
#	182021
#	198754
#	213481
#	229708
#	247315
#	280039
#
# Disc length: 3742 seconds
#
# Revision: 1
# Processed by: cddbd v1.5.2PL0 Copyright (c) Steve Scherf et al.
# Submitted via: audiograbber 1.83.01
#
DISCID=e70e9c10
DTITLE=Various Artist - SC8990 Sound Choice Christmas Favorites Vol 6
DYEAR=1900
DGENRE=Karaoke Country
TTITLE0=CHRISTMAS Martina McBride - Have Yourself A Merry Little Christmas
TTITLE1=CHRISTMAS Toby Keith - Night Before Christmas, The
TTITLE2=CHRISTMAS Johnny Cash - Away In A Manger
TTITLE3=CHRISTMAS Garth Brooks - Gift, The
TTITLE4=CHRISTMAS Judds - What Child Is This
TTITLE5=CHRISTMAS Anne Murray - Little Drummer Boy, The
TTITLE6=CHRISTMAS Dwight Yoakam - Here Comes Santa Claus
TTITLE7=CHRISTMAS Randy Travis - Christmas Song (Chestnuts Roasting)
TTITLE8=CHRISTMAS Sara Evans - O Come All Ye Faithful
TTITLE9=CHRISTMAS Alan Jackson - Let It Be Christmas
TTITLE10=CHRISTMAS Vince Gill - What Child Is This
TTITLE11=CHRISTMAS Trisha Yearwood - Sweetest Gift, The
TTITLE12=CHRISTMAS Lonestar - Winter Wonderland
TTITLE13=CHRISTMAS Emmylou Harris - O Little Town Of Bethlehem
TTITLE14=CHRISTMAS Lee Ann Womack - What Are You Doing New Year's Eve
TTITLE15=Data Track - Data Track
EXTD=
EXTT0=
EXTT1=
EXTT2=
EXTT3=
EXTT4=
EXTT5=
EXTT6=
EXTT7=
EXTT8=
EXTT9=
EXTT10=
EXTT11=
EXTT12=
EXTT13=
EXTT14=
EXTT15=
PLAYORDER=
